<svg width="200" height="100" viewBox="0 0 200 100" fill="none" xmlns="http://www.w3.org/2000/svg">
<path d="M87.4355 62.8435L87.3151 62.9639C85.4686 64.8506 83.301 65.8541 81.0932 65.8541C76.477 65.8541 73.1452 62.4019 73.1452 57.6251C73.1452 52.8483 76.477 49.3962 81.0932 49.3962C83.301 49.3962 85.4285 50.3997 87.3151 52.2863L87.4355 52.4068L90.406 48.8342L90.3257 48.7539C87.8771 45.8236 84.9066 44.4186 81.2538 44.4186C77.6009 44.4186 74.2692 45.663 71.8607 47.8708C69.2515 50.2793 67.8867 53.6511 67.8867 57.6653C67.8867 61.6794 69.2515 65.0513 71.8607 67.4598C74.2692 69.6675 77.6009 70.9119 81.2538 70.9119C84.9066 70.9119 87.837 69.507 90.3257 66.5766L90.406 66.4964C90.406 66.4562 87.4355 62.8435 87.4355 62.8435ZM93.4166 70.3901H98.635V44.82H93.4166V70.3901ZM119.147 64.8104C117.742 65.6534 116.458 66.0949 115.294 66.0949C113.608 66.0949 112.845 65.2118 112.845 63.2048V49.637H118.184V44.82H112.845V36.8721L107.707 39.6017V44.82H103.291V49.637H107.707V64.0879C107.707 68.0217 110.035 70.7112 113.527 70.7915C115.896 70.8316 117.301 70.1492 118.184 69.6274L118.224 69.5872L119.468 64.6499L119.147 64.8104ZM123.482 70.3901H128.741V44.82H123.482V70.3901Z" fill="#242526"/>
<path fill-rule="evenodd" clip-rule="evenodd" d="M131.872 40.2844C127.096 33.5006 119.108 29.4463 110.999 29.4463C102.89 29.4463 94.9425 33.5006 90.1657 40.2844L89.9248 40.6457H95.946L96.0263 40.5654C100.121 36.3105 105.5 34.0625 110.999 34.0625C116.498 34.0625 121.877 36.3105 126.012 40.5654L126.092 40.6457H132.113L131.872 40.2844Z" fill="#242526"/>
</svg>
