<svg width="200" height="100" viewBox="0 0 200 100" fill="none" xmlns="http://www.w3.org/2000/svg">
<g clip-path="url(#clip0_7832_7319)">
<path d="M80.9937 37.7303C79.1095 37.7303 75.7874 39.9436 75.7874 44.914H124.7C125.359 37.5365 120.317 37.7303 120.317 37.7303H80.9937ZM75.3678 47.5343C75.3678 47.5343 75.3634 49.0634 75.3634 49.8638C75.3634 51.442 76.8944 53.3587 79.228 53.3587C80.6893 53.3587 91.0798 53.369 91.0798 53.369L90.7023 56.3679H74.6571L73.8069 63.1593H92.6108C94.1894 63.1593 97.8736 61.8457 98.5013 57.9734C98.5013 57.9699 99.2374 51.605 99.2552 51.3678C99.3493 50.1307 98.6175 47.5343 95.354 47.5343H75.3678ZM100.95 47.5343H124.417L123.899 50.2527C123.899 50.2527 123.381 53.3599 119.752 53.3599H108.254L107.17 63.1604H99.2064L100.95 47.5343ZM125.642 44.914H149.721C150.805 40.1089 148.543 37.7303 146.186 37.7303H126.537L125.641 44.914H125.642ZM131.579 63.1604H123.616L125.36 47.5343H133.418L131.58 63.1604H131.579ZM147.601 63.1604H139.637L141.381 47.5343H149.439L147.601 63.1604ZM52.7912 47.5354H74.3261L73.6198 53.361H60.3787L59.9547 56.3702H73.2434L72.4419 63.1615H51L52.7912 47.5354ZM53.8749 37.7303H75.4099L74.491 44.914H53.1211L53.8749 37.7303Z" fill="black"/>
</g>
<defs>
<clipPath id="clip0_7832_7319">
<rect width="99" height="25.4312" fill="white" transform="translate(51 37.7307)"/>
</clipPath>
</defs>
</svg>
