<svg width="200" height="100" viewBox="0 0 200 100" fill="none" xmlns="http://www.w3.org/2000/svg">
<path d="M48.7036 57.4277L51.6461 63.6621C51.7932 63.9543 52.0874 64.1492 52.4307 64.1492H54.3923C54.6866 64.1492 54.9318 63.9056 54.9318 63.6134C54.9318 63.516 54.9318 63.4673 54.8827 63.3699L51.9403 57.1355C51.7932 56.8432 51.4989 56.6484 51.1066 56.6484H49.145C48.8507 56.6484 48.6055 56.8919 48.6055 57.1842C48.6546 57.2329 48.6546 57.3303 48.7036 57.4277ZM50.7633 34.3409L48.4094 40.8189C48.3113 41.1598 48.3603 41.5008 48.6055 41.7443L49.9787 43.1081C50.1748 43.3029 50.5672 43.3029 50.7633 43.1081C50.8124 43.0594 50.8614 42.9619 50.9104 42.9132L53.2644 36.4353C53.3625 36.0944 53.3134 35.7534 53.0682 35.5099L51.6951 34.1461C51.4989 33.9513 51.1066 33.9513 50.9104 34.1461C50.8614 34.1948 50.8124 34.2922 50.7633 34.3409ZM38.6994 36.0944L41.6418 42.3288C41.7889 42.621 42.0832 42.8158 42.4264 42.8158H44.3881C44.6823 42.8158 44.9275 42.5723 44.9275 42.2801C44.9275 42.1826 44.9275 42.1339 44.8785 42.0365L41.936 35.8021C41.7889 35.5099 41.4947 35.3151 41.1023 35.3151H39.1407C38.8465 35.3151 38.6013 35.5586 38.6013 35.8508C38.6013 35.9482 38.6503 35.997 38.6994 36.0944ZM31.2942 45.7869L37.8166 48.1735C38.1599 48.2709 38.5032 48.2222 38.7484 47.9787L40.1215 46.6149C40.3177 46.4201 40.3177 46.0304 40.1215 45.8356C40.0725 45.7869 39.9744 45.7382 39.9254 45.6895L33.452 43.3516C33.1087 43.2542 32.7655 43.3029 32.5203 43.5464L31.1471 44.9102C30.951 45.105 30.951 45.4947 31.1471 45.6895C31.1471 45.7382 31.2452 45.7869 31.2942 45.7869ZM53.5586 53.8234L60.081 56.21C60.4243 56.3075 60.7676 56.2588 61.0128 56.0152L62.3859 54.6514C62.5821 54.4566 62.5821 54.067 62.3859 53.8721C62.3369 53.8234 62.2388 53.7747 62.1898 53.726L55.6674 51.3394C55.3241 51.242 54.9808 51.2907 54.7356 51.5342L53.3625 52.898C53.1663 53.0928 53.1663 53.4825 53.3625 53.6773C53.4115 53.7747 53.5096 53.8234 53.5586 53.8234ZM47.5757 50.5114L45.9574 48.9041C45.8102 48.7093 45.516 48.6606 45.3198 48.758L32.0789 54.895C31.7846 55.0411 31.5885 55.3333 31.5885 55.6743V57.6225C31.5885 57.9148 31.8337 58.1583 32.1279 58.1583C32.226 58.1583 32.2751 58.1583 32.3731 58.1096L44.0938 52.6545L40.1215 63.5647C40.0235 63.9056 40.0725 64.2466 40.3177 64.4901L41.6908 65.8539C41.887 66.0487 42.2793 66.0487 42.4755 65.8539C42.5245 65.8052 42.5736 65.7078 42.6226 65.6591L47.8209 51.4368C47.919 51.0959 47.8209 50.7549 47.5757 50.5114ZM60.5714 41.6469L54.2942 44.5693C54 44.7154 53.8038 45.0076 53.8038 45.3486V47.2968C53.8038 47.589 54.049 47.8326 54.3433 47.8326C54.4414 47.8326 54.4904 47.8326 54.5885 47.7839L60.8657 44.8615C61.1599 44.7154 61.4051 44.4231 61.4051 44.0822V42.1339C61.4051 41.8417 61.1599 41.5982 60.8657 41.5982C60.7186 41.5982 60.6205 41.6469 60.5714 41.6469ZM71.1642 42.8158L75.1855 53.6286L79.2068 42.8158H81.2175L75.9702 56.5997H74.3518L69.1045 42.8158H71.1642ZM84.6503 42.8158L91.8102 52.9954V42.8158H93.7228V56.5997H92.0554L84.8465 46.4201V56.5997H82.9339V42.8158H84.6503ZM95.3902 52.2161H97.2537C97.2537 53.8234 98.5778 54.9437 100.392 54.9437C102.109 54.9437 103.384 54.067 103.384 52.7519C103.384 49.2451 95.5864 51.4368 95.5864 46.4688C95.5864 44.277 97.4989 42.7184 100.147 42.7184C103.188 42.7184 104.806 44.5693 104.806 46.8097H102.893C102.844 45.446 101.716 44.4718 100.098 44.4718C98.5288 44.4718 97.4499 45.2511 97.4499 46.4201C97.4499 49.586 105.247 47.3942 105.247 52.7032C105.247 54.9924 103.188 56.6484 100.392 56.6484C97.548 56.6971 95.3902 54.7976 95.3902 52.2161ZM123.588 42.8158V56.5997H121.676V50.3653H114.418V56.5997H112.505V42.8158H114.418V48.5632H121.676V42.8158H123.588ZM134.819 52.2648H127.021C127.119 53.9209 128.542 55.2359 130.258 55.1385C131.631 55.1385 132.71 54.5053 132.955 53.4825H134.77C134.426 55.4795 132.563 56.7945 130.209 56.7945C127.414 56.7458 125.207 54.4566 125.256 51.7291C125.305 49.0502 127.463 46.8584 130.209 46.8097C132.759 46.8097 134.868 48.8554 134.868 51.3881V51.583C134.819 51.7291 134.819 52.1187 134.819 52.2648ZM132.857 50.7549C132.71 49.3912 131.484 48.3683 130.062 48.4658C128.64 48.417 127.365 49.3912 127.07 50.7549H132.857ZM146.736 46.9559V56.551H144.921V54.6027C144.235 55.9665 142.763 56.8432 141.243 56.7458C138.644 56.7458 136.535 54.5053 136.535 51.7291C136.535 48.9528 138.595 46.7123 141.243 46.7123C142.812 46.6636 144.235 47.4916 144.921 48.8554V46.9072L146.736 46.9559ZM144.872 51.7778C144.921 50.0244 143.548 48.5632 141.783 48.5145H141.586C140.715 48.5145 139.879 48.8583 139.263 49.4703C138.647 50.0823 138.301 50.9123 138.301 51.7778C138.301 52.6433 138.647 53.4733 139.263 54.0853C139.879 54.6973 140.715 55.0411 141.586 55.0411C143.352 55.0898 144.823 53.726 144.921 51.9726C144.921 51.9239 144.921 51.8265 144.872 51.7778ZM150.267 56.5997H148.403V42.8158H150.267V56.5997ZM155.661 48.7093V53.1416C155.661 54.5053 156.446 54.9924 157.623 54.9924C157.868 54.9924 158.064 54.9924 158.309 54.895V56.551C157.966 56.6484 157.623 56.6484 157.279 56.6484C155.22 56.6484 153.896 55.4795 153.896 53.1416V48.6606H152.032V46.9072H153.896V44.3257H155.71V46.9072H158.309V48.6606L155.661 48.7093ZM169 51.0959V56.5997H167.185V51.2907C167.185 49.6347 166.156 48.5145 164.537 48.5145C162.919 48.5145 161.84 49.6347 161.84 51.2907V56.5997H159.977V42.8158H161.84V48.6606C162.429 47.4916 163.606 46.761 164.93 46.8097C167.431 46.761 169 48.417 169 51.0959Z" fill="black"/>
</svg>
